<?xml version="1.0" standalone="no"?>
<!DOCTYPE svg PUBLIC "-//W3C//DTD SVG 20010904//EN"
 "http://www.w3.org/TR/2001/REC-SVG-20010904/DTD/svg10.dtd">
<svg version="1.0" xmlns="http://www.w3.org/2000/svg"
 width="100.000000pt" height="100.000000pt" viewBox="0 0 100.000000 100.000000"
 preserveAspectRatio="xMidYMid meet">
<metadata>
Created by potrace 1.11, written by Peter Selinger 2001-2013
</metadata>
<g transform="translate(0.000000,100.000000) scale(0.100000,-0.100000)"
fill="#000000" stroke="none">
<path d="M904 952 c-17 -10 -27 -50 -29 -108 -1 -29 -11 -70 -23 -96 -54 -111
-107 -120 -307 -53 -122 41 -148 47 -201 42 -83 -6 -115 -24 -216 -119 -91
-87 -118 -131 -121 -199 -2 -67 59 -89 137 -50 43 22 70 19 57 -7 -27 -55 -49
-94 -83 -145 -60 -92 -62 -97 -34 -84 13 6 32 27 42 45 33 61 91 132 137 167
24 19 46 32 49 30 2 -2 20 -5 41 -7 32 -2 36 -5 30 -23 -8 -27 -8 -27 16 -129
12 -49 19 -97 16 -106 -3 -9 3 -28 14 -41 19 -23 20 -23 22 -4 1 11 1 24 0 28
-17 101 -21 233 -9 262 18 40 207 68 229 34 9 -16 60 8 109 51 19 16 38 30 41
30 3 0 10 8 15 19 5 10 24 37 43 59 55 66 87 171 63 209 -7 12 -12 40 -10 65
3 45 15 53 50 36 16 -8 17 -6 6 19 -10 24 -60 83 -70 83 -2 0 -8 -4 -14 -8z"/>
</g>
</svg>
